<svg data-v-fde0c5aa="" xmlns="http://www.w3.org/2000/svg" viewBox="0 0 300 300" height="80" width='100' class="iconAbove"><!----><defs data-v-fde0c5aa=""><!----></defs><rect data-v-fde0c5aa="" fill="#442D81" x="0" y="0" width="300px" height="300px" class="logo-background-square"></rect><defs data-v-fde0c5aa=""><!----></defs><g data-v-fde0c5aa="" id="623c324a-b80b-4bd6-a088-b2f958cc09d2" fill="#FFFFFF" transform="matrix(3.5470670700843723,0,0,3.5470670700843723,16.02728486459177,127.90995929566841)"><path d="M7.14 26.36L7.14 26.36Q7.14 25.93 6.79 25.54L6.79 25.54L6.79 25.54Q6.44 25.16 5.92 24.86L5.92 24.86L5.92 24.86Q5.40 24.56 4.48 24.08L4.48 24.08L4.48 24.08Q3.40 23.53 2.75 23.14L2.75 23.14L2.75 23.14Q2.10 22.75 1.65 22.21L1.65 22.21L1.65 22.21Q1.19 21.67 1.19 21.01L1.19 21.01L1.19 21.01Q1.19 20.31 1.76 19.51L1.76 19.51L1.76 19.51Q2.34 18.70 3.17 18.15L3.17 18.15L3.17 18.15Q4.00 17.60 4.70 17.60L4.70 17.60L4.70 17.60Q5.56 17.60 6.69 17.81L6.69 17.81L6.69 17.81Q7.81 18.02 8.33 18.26L8.33 18.26L8.33 20.90L7.95 20.90L7.95 20.90Q7.25 19.75 6.41 19.13L6.41 19.13L6.41 19.13Q5.57 18.51 4.65 18.51L4.65 18.51L4.65 18.51Q3.79 18.51 3.30 19.03L3.30 19.03L3.30 19.03Q2.81 19.56 2.81 20.40L2.81 20.40L2.81 20.40Q2.81 20.86 3.18 21.26L3.18 21.26L3.18 21.26Q3.54 21.66 4.08 21.98L4.08 21.98L4.08 21.98Q4.62 22.30 5.54 22.76L5.54 22.76L5.54 22.76Q6.59 23.30 7.23 23.68L7.23 23.68L7.23 23.68Q7.87 24.07 8.31 24.59L8.31 24.59L8.31 24.59Q8.75 25.12 8.75 25.76L8.75 25.76L8.75 25.76Q8.75 26.46 8.13 27.27L8.13 27.27L8.13 27.27Q7.52 28.07 6.63 28.62L6.63 28.62L6.63 28.62Q5.74 29.18 5.01 29.18L5.01 29.18L5.01 29.18Q4.12 29.18 2.88 28.97L2.88 28.97L2.88 28.97Q1.65 28.76 1.12 28.52L1.12 28.52L1.12 25.87L1.50 25.87L1.50 25.87Q2.24 27.02 3.17 27.64L3.17 27.64L3.17 27.64Q4.10 28.27 5.08 28.27L5.08 28.27L5.08 28.27Q5.70 28.27 6.17 28L6.17 28L6.17 28Q6.64 27.73 6.89 27.29L6.89 27.29L6.89 27.29Q7.14 26.85 7.14 26.36L7.14 26.36ZM19.14 28.41L18.89 28.90L16.34 28.90L16.34 24.12L16.34 24.12Q16.34 23.32 16.09 23.02L16.09 23.02L16.09 23.02Q15.83 22.71 15.20 22.71L15.20 22.71L15.20 22.71Q14.71 22.71 14.25 22.88L14.25 22.88L14.25 22.88Q13.78 23.06 13.12 23.59L13.12 23.59L13.12 27.90L14.38 28.41L14.13 28.90L10.33 28.90L10.33 28.53L11.58 27.57L11.58 18.76L10.33 17.88L10.33 17.51L12.66 16.66L13.12 16.66L13.12 23.00L15.11 21.43L15.11 21.43Q15.40 21.32 15.85 21.32L15.85 21.32L15.85 21.32Q16.79 21.32 17.33 21.90L17.33 21.90L17.33 21.90Q17.88 22.48 17.88 23.48L17.88 23.48L17.88 27.89L19.14 28.41ZM24.70 21.32L24.70 21.32Q25.61 21.32 26.32 21.80L26.32 21.80L26.32 21.80Q27.03 22.29 27.44 23.11L27.44 23.11L27.44 23.11Q27.85 23.94 27.85 24.93L27.85 24.93L27.85 24.93Q27.85 26.01 27.20 26.96L27.20 26.96L27.20 26.96Q26.56 27.90 25.59 28.46L25.59 28.46L25.59 28.46Q24.61 29.02 23.70 29.02L23.70 29.02L23.70 29.02Q22.81 29.02 22.09 28.55L22.09 28.55L22.09 28.55Q21.36 28.07 20.96 27.24L20.96 27.24L20.96 27.24Q20.55 26.42 20.55 25.42L20.55 25.42L20.55 25.42Q20.55 24.35 21.20 23.39L21.20 23.39L21.20 23.39Q21.84 22.44 22.81 21.88L22.81 21.88L22.81 21.88Q23.79 21.32 24.70 21.32L24.70 21.32ZM23.88 22.41L23.88 22.41Q22.22 22.41 22.22 24.75L22.22 24.75L22.22 24.75Q22.22 26.11 22.81 27.02L22.81 27.02L22.81 27.02Q23.39 27.93 24.51 27.93L24.51 27.93L24.51 27.93Q26.17 27.93 26.17 25.59L26.17 25.59L26.17 25.59Q26.17 24.23 25.58 23.32L25.58 23.32L25.58 23.32Q24.99 22.41 23.88 22.41L23.88 22.41ZM33.92 29.04L33.92 29.04Q33.10 29.04 32.45 28.56L32.45 28.56L32.45 31.36L34.37 31.96L34.13 32.45L29.67 32.45L29.67 32.09L30.91 31.12L30.91 23.45L29.67 22.74L29.67 22.37L31.95 21.20L32.40 23.06L34.45 21.43L34.45 21.43Q34.90 21.32 35.48 21.32L35.48 21.32L35.48 21.32Q36.20 21.32 36.80 21.80L36.80 21.80L36.80 21.80Q37.39 22.29 37.73 23.11L37.73 23.11L37.73 23.11Q38.07 23.94 38.07 24.93L38.07 24.93L38.07 24.93Q38.07 26.01 37.42 26.96L37.42 26.96L37.42 26.96Q36.78 27.90 35.80 28.46L35.80 28.46L35.80 28.46Q34.83 29.02 33.92 29.02L33.92 29.02L33.92 29.04ZM34.78 22.57L34.78 22.57Q34.23 22.57 33.72 22.79L33.72 22.79L33.72 22.79Q33.21 23.00 32.45 23.70L32.45 23.70L32.45 26.08L32.45 26.08Q32.45 26.88 33.04 27.41L33.04 27.41L33.04 27.41Q33.63 27.94 34.73 27.94L34.73 27.94L34.73 27.94Q35.56 27.94 35.97 27.36L35.97 27.36L35.97 27.36Q36.39 26.77 36.39 25.62L36.39 25.62L36.39 25.62Q36.39 24.33 35.97 23.44L35.97 23.44L35.97 23.44Q35.55 22.55 34.79 22.55L34.79 22.55L34.78 22.57ZM47.01 26.92L44.46 28.92L44.46 28.92Q43.95 29.02 43.25 29.02L43.25 29.02L43.25 29.02Q42.35 29.02 41.63 28.55L41.63 28.55L41.63 28.55Q40.91 28.07 40.50 27.24L40.50 27.24L40.50 27.24Q40.10 26.42 40.10 25.42L40.10 25.42L40.10 25.42Q40.10 24.35 40.74 23.39L40.74 23.39L40.74 23.39Q41.38 22.44 42.36 21.88L42.36 21.88L42.36 21.88Q43.33 21.32 44.24 21.32L44.24 21.32L44.24 21.32Q45.53 21.32 46.25 22.36L46.25 22.36L46.25 22.36Q46.97 23.39 46.98 25.07L46.98 25.07L41.79 25.07L41.79 25.07Q41.86 26.32 42.44 27.13L42.44 27.13L42.44 27.13Q43.02 27.93 44.06 27.93L44.06 27.93L44.06 27.93Q44.97 27.93 46.59 26.43L46.59 26.43L47.01 26.92ZM43.43 22.41L43.43 22.41Q41.86 22.41 41.79 24.57L41.79 24.57L45.18 24.57L45.18 24.57Q45.04 23.77 44.91 23.36L44.91 23.36L44.91 23.36Q44.77 22.95 44.43 22.68L44.43 22.68L44.43 22.68Q44.09 22.41 43.41 22.41L43.41 22.41L43.43 22.41ZM57.65 28.41L57.40 28.90L54.85 28.90L54.85 24.12L54.85 24.12Q54.85 23.32 54.60 23.02L54.60 23.02L54.60 23.02Q54.35 22.71 53.72 22.71L53.72 22.71L53.72 22.71Q53.23 22.71 52.76 22.88L52.76 22.88L52.76 22.88Q52.29 23.06 51.63 23.59L51.63 23.59L51.63 27.90L52.89 28.41L52.64 28.90L48.85 28.90L48.85 28.53L50.09 27.57L50.09 23.45L48.85 22.74L48.85 22.37L51.13 21.20L51.58 23.06L53.62 21.43L53.62 21.43Q53.91 21.32 54.36 21.32L54.36 21.32L54.36 21.32Q55.30 21.32 55.85 21.90L55.85 21.90L55.85 21.90Q56.39 22.48 56.39 23.48L56.39 23.48L56.39 27.89L57.65 28.41ZM60.76 27.34L64.34 27.34L64.95 26.21L65.30 26.33L65.30 29.13L64.60 28.88L59.02 28.88L59.02 28.42L63.80 23.00L60.13 23.00L59.57 24.00L59.22 23.87L59.22 21.21L59.92 21.46L65.49 21.46L65.49 21.92L60.76 27.34ZM74.42 26.92L71.88 28.92L71.88 28.92Q71.36 29.02 70.66 29.02L70.66 29.02L70.66 29.02Q69.76 29.02 69.04 28.55L69.04 28.55L69.04 28.55Q68.32 28.07 67.91 27.24L67.91 27.24L67.91 27.24Q67.51 26.42 67.51 25.42L67.51 25.42L67.51 25.42Q67.51 24.35 68.15 23.39L68.15 23.39L68.15 23.39Q68.80 22.44 69.77 21.88L69.77 21.88L69.77 21.88Q70.74 21.32 71.65 21.32L71.65 21.32L71.65 21.32Q72.94 21.32 73.66 22.36L73.66 22.36L73.66 22.36Q74.38 23.39 74.40 25.07L74.40 25.07L69.20 25.07L69.20 25.07Q69.27 26.32 69.85 27.13L69.85 27.13L69.85 27.13Q70.43 27.93 71.47 27.93L71.47 27.93L71.47 27.93Q72.38 27.93 74.00 26.43L74.00 26.43L74.42 26.92ZM70.84 22.41L70.84 22.41Q69.27 22.41 69.20 24.57L69.20 24.57L72.59 24.57L72.59 24.57Q72.45 23.77 72.32 23.36L72.32 23.36L72.32 23.36Q72.18 22.95 71.84 22.68L71.84 22.68L71.84 22.68Q71.50 22.41 70.83 22.41L70.83 22.41L70.84 22.41Z"></path></g><defs data-v-fde0c5aa=""><!----></defs><g data-v-fde0c5aa="" id="f1d2956a-b966-437b-a224-5d6cb9b0e020" stroke="none" fill="#727FD5" transform="matrix(2.467320955753805,0,0,2.467320955753805,26.3547504321654,-13.084197922262248)"><circle cx="16.8" cy="69.1" r="4.7"></circle><circle cx="41.3" cy="69.1" r="4.7"></circle><path d="M12.1 62H47c1.6 0 3-1 3.5-2.5L58 35.6h7.4c2 0 3.6-1.6 3.6-3.6s-1.6-3.6-3.6-3.6H55.3c-1.6 0-3 1-3.5 2.5l-7.5 23.9H14.7L9.6 39C9 37.1 6.9 36.1 5 36.7c-1.9.6-2.9 2.7-2.3 4.6l5.9 18.3c.5 1.4 1.9 2.4 3.5 2.4zM76.2 59.6h3.7c.7 0 1.2-.5 1.2-1.2s-.5-1.2-1.2-1.2h-3.7c-.7 0-1.2.5-1.2 1.2s.5 1.2 1.2 1.2zM64.4 45.1h28.9c.7 0 1.2-.5 1.2-1.2s-.5-1.2-1.2-1.2H64.4c-.7 0-1.2.5-1.2 1.2s.5 1.2 1.2 1.2zM91.4 48.5h5.1c.7 0 1.2-.5 1.2-1.2s-.5-1.2-1.2-1.2h-5.1c-.7 0-1.2.5-1.2 1.2 0 .6.6 1.2 1.2 1.2zM82.6 51.1h3.7c.7 0 1.2-.5 1.2-1.2s-.5-1.2-1.2-1.2h-3.7c-.7 0-1.2.5-1.2 1.2s.6 1.2 1.2 1.2zM76.2 41.8h3.7c.7 0 1.2-.5 1.2-1.2s-.5-1.2-1.2-1.2h-3.7c-.7 0-1.2.5-1.2 1.2s.5 1.2 1.2 1.2zM61 50.9h17.1c.7 0 1.2-.5 1.2-1.2s-.5-1.2-1.2-1.2H61c-.7 0-1.2.5-1.2 1.2 0 .6.5 1.2 1.2 1.2zM55.7 56.1h30.1c.7 0 1.2-.5 1.2-1.2s-.5-1.2-1.2-1.2H55.7c-.7 0-1.2.5-1.2 1.2s.5 1.2 1.2 1.2z"></path></g><!----></svg>